<mxfile host="app.diagrams.net" modified="2023-01-18T02:48:26.969Z" agent="5.0 (Windows NT 10.0; Win64; x64) AppleWebKit/537.36 (KHTML, like Gecko) Chrome/109.0.0.0 Safari/537.36" version="20.8.5" etag="tctaaNIcj_AaGO4_BgbO" type="github">
  <diagram id="CdoecEKsvYNk3Fa5A7Eg" name="第 1 页">
    <mxGraphModel dx="1877" dy="549" grid="1" gridSize="10" guides="1" tooltips="1" connect="1" arrows="1" fold="1" page="1" pageScale="1" pageWidth="827" pageHeight="1169" math="0" shadow="0">
      <root>
        <mxCell id="0" />
        <mxCell id="1" parent="0" />
        <mxCell id="DAYk3fxyXVAYVyRmr0ne-25" style="edgeStyle=orthogonalEdgeStyle;rounded=0;orthogonalLoop=1;jettySize=auto;html=1;entryX=0;entryY=0.5;entryDx=0;entryDy=0;fontSize=24;" edge="1" parent="1" source="DAYk3fxyXVAYVyRmr0ne-17" target="DAYk3fxyXVAYVyRmr0ne-18">
          <mxGeometry relative="1" as="geometry" />
        </mxCell>
        <mxCell id="DAYk3fxyXVAYVyRmr0ne-17" value="Actor" style="shape=umlActor;verticalLabelPosition=bottom;verticalAlign=top;html=1;outlineConnect=0;fontSize=24;" vertex="1" parent="1">
          <mxGeometry x="-30" y="410" width="30" height="60" as="geometry" />
        </mxCell>
        <mxCell id="DAYk3fxyXVAYVyRmr0ne-26" style="edgeStyle=orthogonalEdgeStyle;rounded=0;orthogonalLoop=1;jettySize=auto;html=1;entryX=0;entryY=0.5;entryDx=0;entryDy=0;entryPerimeter=0;fontSize=24;" edge="1" parent="1" source="DAYk3fxyXVAYVyRmr0ne-18" target="DAYk3fxyXVAYVyRmr0ne-24">
          <mxGeometry relative="1" as="geometry" />
        </mxCell>
        <mxCell id="DAYk3fxyXVAYVyRmr0ne-18" value="" style="rounded=1;whiteSpace=wrap;html=1;strokeWidth=2;fillWeight=4;hachureGap=8;hachureAngle=45;sketch=1;fontSize=24;" vertex="1" parent="1">
          <mxGeometry x="170" y="290" width="370" height="300" as="geometry" />
        </mxCell>
        <mxCell id="DAYk3fxyXVAYVyRmr0ne-19" value="电商项目" style="text;strokeColor=none;fillColor=none;html=1;fontSize=24;fontStyle=1;verticalAlign=middle;align=center;" vertex="1" parent="1">
          <mxGeometry x="305" y="300" width="100" height="40" as="geometry" />
        </mxCell>
        <mxCell id="DAYk3fxyXVAYVyRmr0ne-20" value="商品管理" style="rounded=1;whiteSpace=wrap;html=1;strokeWidth=2;fillWeight=4;hachureGap=8;hachureAngle=45;fillColor=#d5e8d4;sketch=1;fontSize=24;strokeColor=#82b366;" vertex="1" parent="1">
          <mxGeometry x="200" y="390" width="120" height="60" as="geometry" />
        </mxCell>
        <mxCell id="DAYk3fxyXVAYVyRmr0ne-21" value="订单管理" style="rounded=1;whiteSpace=wrap;html=1;strokeWidth=2;fillWeight=4;hachureGap=8;hachureAngle=45;fillColor=#d5e8d4;sketch=1;fontSize=24;strokeColor=#82b366;" vertex="1" parent="1">
          <mxGeometry x="200" y="490" width="120" height="60" as="geometry" />
        </mxCell>
        <mxCell id="DAYk3fxyXVAYVyRmr0ne-22" value="用户管理" style="rounded=1;whiteSpace=wrap;html=1;strokeWidth=2;fillWeight=4;hachureGap=8;hachureAngle=45;fillColor=#d5e8d4;sketch=1;fontSize=24;strokeColor=#82b366;" vertex="1" parent="1">
          <mxGeometry x="380" y="390" width="120" height="60" as="geometry" />
        </mxCell>
        <mxCell id="DAYk3fxyXVAYVyRmr0ne-23" value="广告管理" style="rounded=1;whiteSpace=wrap;html=1;strokeWidth=2;fillWeight=4;hachureGap=8;hachureAngle=45;fillColor=#d5e8d4;sketch=1;fontSize=24;strokeColor=#82b366;" vertex="1" parent="1">
          <mxGeometry x="380" y="490" width="120" height="60" as="geometry" />
        </mxCell>
        <mxCell id="DAYk3fxyXVAYVyRmr0ne-24" value="Database" style="shape=cylinder3;whiteSpace=wrap;html=1;boundedLbl=1;backgroundOutline=1;size=15;fontSize=24;fillColor=#dae8fc;strokeColor=#6c8ebf;" vertex="1" parent="1">
          <mxGeometry x="660" y="400" width="180" height="80" as="geometry" />
        </mxCell>
        <mxCell id="DAYk3fxyXVAYVyRmr0ne-27" value="单体架构" style="text;html=1;strokeColor=none;fillColor=none;align=center;verticalAlign=middle;whiteSpace=wrap;rounded=0;fontSize=24;" vertex="1" parent="1">
          <mxGeometry x="295" y="220" width="120" height="30" as="geometry" />
        </mxCell>
      </root>
    </mxGraphModel>
  </diagram>
</mxfile>
